HIERARCHY
ROOT reference
{
  OFFSET 0 0 0
  CHANNELS 6 Xposition Yposition Zposition Zrotation Xrotation Yrotation
  JOINT Hips
  {
    OFFSET 350.331 86.7696 215.823
    CHANNELS 3 Zrotation Xrotation Yrotation
    JOINT RightUpLeg
    {
      OFFSET -9.29271 -1.56052 -0.0234997
      CHANNELS 3 Zrotation Xrotation Yrotation
      JOINT RightLeg
      {
        OFFSET -0.0199852 -41.8973 0.0465042
        CHANNELS 3 Zrotation Xrotation Yrotation
        JOINT RightFoot
        {
          OFFSET -0.344404 -43.5008 0.46033
          CHANNELS 3 Zrotation Xrotation Yrotation
          End Site
          {
            OFFSET 0 -7.69 17.5
          }
        }
      }
    }
    JOINT LeftUpLeg
    {
      OFFSET 9.27671 -1.61046 0.00923455
      CHANNELS 3 Zrotation Xrotation Yrotation
      JOINT LeftLeg
      {
        OFFSET 0.0572944 -41.8832 0.025786
        CHANNELS 3 Zrotation Xrotation Yrotation
        JOINT LeftFoot
        {
          OFFSET 0.630082 -40.4663 0.064708
          CHANNELS 3 Zrotation Xrotation Yrotation
          End Site
          {
            OFFSET 0 -7.69 17.5
          }
        }
      }
    }
    JOINT Spine
    {
      OFFSET 0.0336257 14.3009 0.0467062
      CHANNELS 3 Zrotation Xrotation Yrotation
      JOINT Spine1
      {
        OFFSET 0.0295985 9.72711 0.0239471
        CHANNELS 3 Zrotation Xrotation Yrotation
        JOINT Spine2
        {
          OFFSET 0.0515174 10.1206 0.00128176
          CHANNELS 3 Zrotation Xrotation Yrotation
          JOINT Spine3
          {
            OFFSET 0.0546141 9.71668 0.0122483
            CHANNELS 3 Zrotation Xrotation Yrotation
            JOINT Neck
            {
              OFFSET 0.0872189 10.3831 0.0511468
              CHANNELS 3 Zrotation Xrotation Yrotation
              JOINT Head
              {
                OFFSET 0.0544 9.47189 0.0313815
                CHANNELS 3 Zrotation Xrotation Yrotation
                End Site
                {
                  OFFSET 0 15.95 0
                }
              }
            }
            JOINT RightShoulder
            {
              OFFSET -3.15364 6.93551 0.0260198
              CHANNELS 3 Zrotation Xrotation Yrotation
              JOINT RightArm
              {
                OFFSET -12.7567 0.0626665 0.0664987
                CHANNELS 3 Zrotation Xrotation Yrotation
                JOINT RightForeArm
                {
                  OFFSET -26.5087 -0.073346 0.274032
                  CHANNELS 3 Zrotation Xrotation Yrotation
                  JOINT RightHand
                  {
                    OFFSET -26.0005 -0.196673 0.105827
                    CHANNELS 3 Zrotation Xrotation Yrotation
                    JOINT RightHandThumb1
                    {
                      OFFSET -2.48905 0.190105 3.12053
                      CHANNELS 3 Zrotation Xrotation Yrotation
                      JOINT RightHandThumb2
                      {
                        OFFSET -3.68274 0 0
                        CHANNELS 3 Zrotation Xrotation Yrotation
                        JOINT RightHandThumb3
                        {
                          OFFSET -2.55832 0 0
                          CHANNELS 3 Zrotation Xrotation Yrotation
                          End Site
                          {
                            OFFSET -2.194 0 0
                          }
                        }
                      }
                    }
                    JOINT RightInHandIndex
                    {
                      OFFSET -3.22368 0.508421 1.97842
                      CHANNELS 3 Zrotation Xrotation Yrotation
                      JOINT RightHandIndex1
                      {
                        OFFSET -5.21684 -0.091368 0.999158
                        CHANNELS 3 Zrotation Xrotation Yrotation
                        JOINT RightHandIndex2
                        {
                          OFFSET -3.61937 0 0
                          CHANNELS 3 Zrotation Xrotation Yrotation
                          JOINT RightHandIndex3
                          {
                            OFFSET -2.0521 0 0
                            CHANNELS 3 Zrotation Xrotation Yrotation
                            End Site
                            {
                              OFFSET -1.805 0 0
                            }
                          }
                        }
                      }
                    }
                    JOINT RightInHandMiddle
                    {
                      OFFSET -3.38211 0.517263 0.756737
                      CHANNELS 3 Zrotation Xrotation Yrotation
                      JOINT RightHandMiddle1
                      {
                        OFFSET -5.17411 -0.084 0.313895
                        CHANNELS 3 Zrotation Xrotation Yrotation
                        JOINT RightHandMiddle2
                        {
                          OFFSET -3.94947 0 0
                          CHANNELS 3 Zrotation Xrotation Yrotation
                          JOINT RightHandMiddle3
                          {
                            OFFSET -2.47579 0 0
                            CHANNELS 3 Zrotation Xrotation Yrotation
                            End Site
                            {
                              OFFSET -1.975 0 0
                            }
                          }
                        }
                      }
                    }
                    JOINT RightInHandRing
                    {
                      OFFSET -3.36516 0.537895 -0.128947
                      CHANNELS 3 Zrotation Xrotation Yrotation
                      JOINT RightHandRing1
                      {
                        OFFSET -4.63474 -0.022105 -0.478947
                        CHANNELS 3 Zrotation Xrotation Yrotation
                        JOINT RightHandRing2
                        {
                          OFFSET -3.44238 0 0
                          CHANNELS 3 Zrotation Xrotation Yrotation
                          JOINT RightHandRing3
                          {
                            OFFSET -2.3881 0 0
                            CHANNELS 3 Zrotation Xrotation Yrotation
                            End Site
                            {
                              OFFSET -1.857 0 0
                            }
                          }
                        }
                      }
                    }
                    JOINT RightInHandPinky
                    {
                      OFFSET -3.16105 0.469368 -1.20179
                      CHANNELS 3 Zrotation Xrotation Yrotation
                      JOINT RightHandPinky1
                      {
                        OFFSET -4.14105 -0.022105 -1.09053
                        CHANNELS 3 Zrotation Xrotation Yrotation
                        JOINT RightHandPinky2
                        {
                          OFFSET -2.75653 0 0
                          CHANNELS 3 Zrotation Xrotation Yrotation
                          JOINT RightHandPinky3
                          {
                            OFFSET -1.74189 0 0
                            CHANNELS 3 Zrotation Xrotation Yrotation
                            End Site
                            {
                              OFFSET -1.645 0 0
                            }
                          }
                        }
                      }
                    }
                  }
                }
              }
            }
            JOINT LeftShoulder
            {
              OFFSET 3.27252 6.91581 -0.0198585
              CHANNELS 3 Zrotation Xrotation Yrotation
              JOINT LeftArm
              {
                OFFSET 12.8319 -0.0466028 -0.0574599
                CHANNELS 3 Zrotation Xrotation Yrotation
                JOINT LeftForeArm
                {
                  OFFSET 26.4942 -0.039105 -0.0936
                  CHANNELS 3 Zrotation Xrotation Yrotation
                  JOINT LeftHand
                  {
                    OFFSET 26.0008 0.022674 -0.016655
                    CHANNELS 3 Zrotation Xrotation Yrotation
                    JOINT LeftHandThumb1
                    {
                      OFFSET 2.48905 0.190105 3.12053
                      CHANNELS 3 Zrotation Xrotation Yrotation
                      JOINT LeftHandThumb2
                      {
                        OFFSET 3.68274 0 0
                        CHANNELS 3 Zrotation Xrotation Yrotation
                        JOINT LeftHandThumb3
                        {
                          OFFSET 2.55832 0 0
                          CHANNELS 3 Zrotation Xrotation Yrotation
                          End Site
                          {
                            OFFSET 2.194 0 0
                          }
                        }
                      }
                    }
                    JOINT LeftInHandIndex
                    {
                      OFFSET 3.22368 0.508421 1.97842
                      CHANNELS 3 Zrotation Xrotation Yrotation
                      JOINT LeftHandIndex1
                      {
                        OFFSET 5.21684 -0.091368 0.999158
                        CHANNELS 3 Zrotation Xrotation Yrotation
                        JOINT LeftHandIndex2
                        {
                          OFFSET 3.61937 0 0
                          CHANNELS 3 Zrotation Xrotation Yrotation
                          JOINT LeftHandIndex3
                          {
                            OFFSET 2.0521 0 0
                            CHANNELS 3 Zrotation Xrotation Yrotation
                            End Site
                            {
                              OFFSET 1.805 0 0
                            }
                          }
                        }
                      }
                    }
                    JOINT LeftInHandMiddle
                    {
                      OFFSET 3.38211 0.517263 0.756737
                      CHANNELS 3 Zrotation Xrotation Yrotation
                      JOINT LeftHandMiddle1
                      {
                        OFFSET 5.17411 -0.084 0.313895
                        CHANNELS 3 Zrotation Xrotation Yrotation
                        JOINT LeftHandMiddle2
                        {
                          OFFSET 3.94947 0 0
                          CHANNELS 3 Zrotation Xrotation Yrotation
                          JOINT LeftHandMiddle3
                          {
                            OFFSET 2.47579 0 0
                            CHANNELS 3 Zrotation Xrotation Yrotation
                            End Site
                            {
                              OFFSET 1.975 0 0
                            }
                          }
                        }
                      }
                    }
                    JOINT LeftInHandRing
                    {
                      OFFSET 3.36516 0.537895 -0.128947
                      CHANNELS 3 Zrotation Xrotation Yrotation
                      JOINT LeftHandRing1
                      {
                        OFFSET 4.63474 -0.022105 -0.478947
                        CHANNELS 3 Zrotation Xrotation Yrotation
                        JOINT LeftHandRing2
                        {
                          OFFSET 3.44238 0 0
                          CHANNELS 3 Zrotation Xrotation Yrotation
                          JOINT LeftHandRing3
                          {
                            OFFSET 2.3881 0 0
                            CHANNELS 3 Zrotation Xrotation Yrotation
                            End Site
                            {
                              OFFSET 1.857 0 0
                            }
                          }
                        }
                      }
                    }
                    JOINT LeftInHandPinky
                    {
                      OFFSET 3.16105 0.469368 -1.20179
                      CHANNELS 3 Zrotation Xrotation Yrotation
                      JOINT LeftHandPinky1
                      {
                        OFFSET 4.14105 -0.022105 -1.09053
                        CHANNELS 3 Zrotation Xrotation Yrotation
                        JOINT LeftHandPinky2
                        {
                          OFFSET 2.75653 0 0
                          CHANNELS 3 Zrotation Xrotation Yrotation
                          JOINT LeftHandPinky3
                          {
                            OFFSET 1.74189 0 0
                            CHANNELS 3 Zrotation Xrotation Yrotation
                            End Site
                            {
                              OFFSET 1.645 0 0
                            }
                          }
                        }
                      }
                    }
                  }
                }
              }
            }
          }
        }
      }
    }
  }
}
MOTION
Frames: 2
Frame Time: 0.00833333
1.050000000000000000e+03 0.000000000000000000e+00 0.000000000000000000e+00 0.000000000000000000e+00 0.000000000000000000e+00 0.000000000000000000e+00 2.820375277256493618e+01 9.027486805083931642e+00 -1.210158260432349380e+02 5.972227361058237705e-01 -6.327276891693050231e+01 -2.730227668205486680e+00 -5.137617823193536548e-01 1.987725242793297653e+01 -1.344218929469473522e+00 1.084828116677421761e+01 1.514674579940192345e+01 4.365746822818881867e+01 4.279751155313147137e+01 -3.516353139468676403e+01 2.955209486799105889e+01 -1.396358688037620510e+01 4.350555078263299436e+01 1.709795561782736684e+01 -6.354671445675635688e+00 -2.329571308411016162e+01 1.548045305710530783e+00 -7.913343500976098177e+00 3.379561761574555234e+00 -1.927655563318459997e+00 -1.867760771395319042e+00 1.088275287141831527e+00 -7.072408754988606105e-01 -3.086504049803203475e+00 1.826797465746083482e+00 -6.095015133683849839e-01 -5.323933560290683431e-01 -6.276917735984219315e-02 1.935331973714846221e+00 -1.367199536217077016e+00 3.106057148409626656e-01 2.380987833230943451e+01 -1.010167033797227276e+01 -1.211674467073801775e+00 2.395191710506571425e+01 1.203898336316502693e+01 2.337972415245280544e+00 -4.833125130627085042e-01 7.428944356724778686e+01 -4.312812770104544313e+01 1.828716235097918030e+01 5.484929503586138821e+01 -3.348931304886183113e+01 8.458014784768394634e+01 1.485091837354870492e+01 -3.490201999190970383e+01 -8.296691127325937387e+00 2.818400000000000105e+01 1.072940000000000005e+01 1.915919999999999845e+01 1.470775951100871869e-14 -1.348444415675893924e-15 -1.000000000000000000e+01 2.012897497461496101e-14 1.597425422797045812e-15 -1.000000000000000000e+01 4.638013799377826892e-15 -8.440439632604850670e-16 -7.758616245640916872e-15 1.998179999999999978e+01 8.718970000000000331e-01 2.396399999999999864e+00 2.400000000000000000e+01 1.310545165636250132e-14 1.798564135828989773e-14 2.000000000000000000e+01 7.856516457969604520e-15 1.938646973162053141e-14 4.638013799377826892e-15 -8.440439632604850670e-16 -7.758616245640916872e-15 2.000000000000000000e+01 -1.994155512998155865e-15 1.693909449768564035e-14 2.400000000000000000e+01 2.581921111846518820e-15 2.808677513089286758e-15 2.000000000000000000e+01 8.079198467637005512e-16 2.924024465119630635e-14 4.638013799377826892e-15 -8.440439632604850670e-16 -7.758616245640916872e-15 1.997479999999999833e+01 -1.025649999999999951e+00 -2.819380000000000219e+00 2.400000000000000000e+01 -5.994028482598620209e-15 1.519041627447672757e-14 2.000000000000000000e+01 -1.954973868864901325e-15 2.020685946026503877e-14 4.638013799377826892e-15 -8.440439632604850670e-16 -7.758616245640916872e-15 1.978150000000000119e+01 -3.009479999999999933e+00 -8.305149999999999366e+00 2.400000000000000000e+01 -8.045231012818910622e-15 8.864605163302202097e-15 2.000000000000000000e+01 1.087578164965699489e-15 1.117177553273884488e-14 1.380500001920293940e+01 -1.347472245521972312e+01 -4.981692207527346028e+01 3.187296807094863738e+00 4.027073907937375452e+01 -1.123716504367573350e+02 3.965102427883805092e+01 -2.712744789116065292e+01 4.012293587668606420e+01 -3.099505408305947185e+01 -2.099608148446550260e+01 7.110928858857564094e+00 -2.818400000000000105e+01 1.072940000000000005e+01 -1.915919999999999845e+01 -1.003089147266950423e-16 -4.249345575532819850e-15 1.000000000000000000e+01 3.177068637406410352e-15 -8.543574868899350516e-15 1.000000000000000000e+01 9.659610392672292272e-15 6.049870959093424933e-15 5.273484722333839063e-16 -1.998179999999999978e+01 8.718970000000000331e-01 -2.396399999999999864e+00 -2.400000000000000000e+01 -6.009421789850253896e-15 -1.280359293426329278e-14 -2.000000000000000000e+01 3.054193989517533170e-15 -1.912885839782889394e-14 9.659610392672292272e-15 6.049870959093424933e-15 5.273484722333839063e-16 -2.000000000000000000e+01 1.966137776442443645e-15 -6.530357706298550538e-15 -2.400000000000000000e+01 7.404699551637094522e-15 1.499568159991733098e-14 -2.000000000000000000e+01 1.382694281420535368e-15 -4.000193620892658595e-15 9.659610392672292272e-15 6.049870959093424933e-15 5.273484722333839063e-16 -1.997479999999999833e+01 -1.025649999999999951e+00 2.819380000000000219e+00 -2.400000000000000000e+01 2.381689341864055416e-15 3.958090849535634894e-16 -2.000000000000000000e+01 -2.439648024250501354e-15 1.215781037523457979e-14 9.659610392672292272e-15 6.049870959093424933e-15 5.273484722333839063e-16 -1.978150000000000119e+01 -3.009479999999999933e+00 8.305149999999999366e+00 -2.400000000000000000e+01 1.523673157557185700e-15 3.267684240575055841e-15 -2.000000000000000000e+01 -5.795608550994048935e-15 -4.849278797508793829e-15
1.050000000000000000e+03 0.000000000000000000e+00 0.000000000000000000e+00 0.000000000000000000e+00 0.000000000000000000e+00 0.000000000000000000e+00 2.818506279282840765e+01 9.033507146204197369e+00 -1.209626991671221390e+02 6.119718800358455724e-01 -6.320883015094459978e+01 -2.709977609441232005e+00 -5.152756339906807703e-01 1.985849509221844045e+01 -1.352388005321810027e+00 1.085868595709422912e+01 1.513207960183117073e+01 4.362576993272740822e+01 4.274980528572865524e+01 -3.514730910556821186e+01 2.950669962525335421e+01 -1.394346109105911502e+01 4.349821296128028791e+01 1.707981855128841175e+01 -6.350017611674942941e+00 -2.328713057626979932e+01 1.531333595424698046e+00 -7.897666280774094716e+00 3.376249515263063827e+00 -1.927623603428457955e+00 -1.863941866028283378e+00 1.086762406661362812e+00 -7.064740951571799599e-01 -3.080262550862443049e+00 1.824176955547510026e+00 -6.094699412474327005e-01 -5.314523559780579554e-01 -6.237597246460291345e-02 1.933509688894177181e+00 -1.365002651183570226e+00 3.095150469199162702e-01 2.378779515057995653e+01 -1.008370946582159711e+01 -1.193648694892557760e+00 2.392587135300653500e+01 1.202626929683701285e+01 2.330108937165832117e+00 -4.825656475560364811e-01 7.426660875676580531e+01 -4.311629340300766700e+01 1.829260927419436911e+01 5.479643575471628480e+01 -3.343373515034267740e+01 8.460487455161901948e+01 1.483917875955447840e+01 -3.489997163299404548e+01 -8.256249911114826645e+00 2.818400000000000105e+01 1.072940000000000005e+01 1.915919999999999845e+01 1.472262293481572334e-14 -1.346120174718850209e-15 -1.000000000000000000e+01 2.012055327048404203e-14 1.600051765315637955e-15 -1.000000000000000000e+01 4.637535112122928934e-15 -8.454929335628900060e-16 -7.756171253775754673e-15 1.998179999999999978e+01 8.718970000000000331e-01 2.396399999999999864e+00 2.400000000000000000e+01 1.311036582679475642e-14 1.801263417850633233e-14 2.000000000000000000e+01 7.859083046422107306e-15 1.938117723319846456e-14 4.637535112122928934e-15 -8.454929335628900060e-16 -7.756171253775754673e-15 2.000000000000000000e+01 -1.994429034066154471e-15 1.693144564754197907e-14 2.400000000000000000e+01 2.586703098123198774e-15 2.827420545659816278e-15 2.000000000000000000e+01 8.077816731571572026e-16 2.923546767412378041e-14 4.637535112122928934e-15 -8.454929335628900060e-16 -7.756171253775754673e-15 1.997479999999999833e+01 -1.025649999999999951e+00 -2.819380000000000219e+00 2.400000000000000000e+01 -5.989551790286604353e-15 1.519812858805724244e-14 2.000000000000000000e+01 -1.952840575566488009e-15 2.020795855535684810e-14 4.637535112122928934e-15 -8.454929335628900060e-16 -7.756171253775754673e-15 1.978150000000000119e+01 -3.009479999999999933e+00 -8.305149999999999366e+00 2.400000000000000000e+01 -8.036589308914743567e-15 8.882590085572500641e-15 2.000000000000000000e+01 1.091217743903949580e-15 1.117233534410981432e-14 1.379502282161044491e+01 -1.347748668878664091e+01 -4.981118581147906355e+01 3.144400164716259383e+00 4.024189500506102490e+01 -1.123509041406534124e+02 3.959657166599843237e+01 -2.710784521576069750e+01 3.998644109922842915e+01 -3.100400024069078242e+01 -2.097909425895294433e+01 7.078505254578592698e+00 -2.818400000000000105e+01 1.072940000000000005e+01 -1.915919999999999845e+01 -1.002740088300035301e-16 -4.246628205380395502e-15 1.000000000000000000e+01 3.180795410601112773e-15 -8.542669281828178603e-15 1.000000000000000000e+01 9.660189782781147003e-15 6.048802661521043250e-15 5.243146690963059749e-16 -1.998179999999999978e+01 8.718970000000000331e-01 -2.396399999999999864e+00 -2.400000000000000000e+01 -6.010060149973487623e-15 -1.280752086064660182e-14 -2.000000000000000000e+01 3.049822837325208349e-15 -1.911952421959580537e-14 9.660189782781147003e-15 6.048802661521043250e-15 5.243146690963059749e-16 -2.000000000000000000e+01 1.966304513764152754e-15 -6.532808463053212797e-15 -2.400000000000000000e+01 7.403936850782172883e-15 1.497895838368534460e-14 -2.000000000000000000e+01 1.380979678461282300e-15 -3.999028039660065024e-15 9.660189782781147003e-15 6.048802661521043250e-15 5.243146690963059749e-16 -1.997479999999999833e+01 -1.025649999999999951e+00 2.819380000000000219e+00 -2.400000000000000000e+01 2.380947630476847680e-15 3.964869930533498433e-16 -2.000000000000000000e+01 -2.440498577123003744e-15 1.214782757156191823e-14 9.660189782781147003e-15 6.048802661521043250e-15 5.243146690963059749e-16 -1.978150000000000119e+01 -3.009479999999999933e+00 8.305149999999999366e+00 -2.400000000000000000e+01 1.522169998640397876e-15 3.269742569988085132e-15 -2.000000000000000000e+01 -5.792281049892884650e-15 -4.867721436651275083e-15
